<?xml version="1.0" encoding="UTF-8"?>
<!-- Generated by jsxcad -->
<!DOCTYPE svg PUBLIC "-//W3C//DTD SVG 1.1 Tiny//EN" "http://www.w3.org/Graphics/SVG/1.1/DTD/svg11-tiny.dtd">
<svg viewBox="-250 -250 500 500" width="500" height="500" xmlns="http://www.w3.org/2000/svg"><path d="M-9.726569957877892,88.91756393950406L1.4872998924799847,98.32138787611298L-55.89878901363712,-2.932548635288112z" style="fill:rgb(32,48,157)"/><path d="M1.4872998924799847,98.32138787611298L16.46767411730553,104.28808916278282L-40.0521057122181,2.336534945367264z" style="fill:rgb(54,37,180)"/><path d="M16.46767411730553,104.28808916278282L34.21773268574661,106.24532961288578L-20.953719707131228,3.4210851991788727z" style="fill:rgb(81,32,199)"/><path d="M105.06829264904015,74.18618979858596L115.76788621892493,59.302776674026454L69.78065123059967,-48.17114079945576z" style="fill:rgb(222,97,206)"/><path d="M-55.89878901363712,-2.932548635288112L-67.45419358020726,-11.840854086136307L-9.726569957877892,88.91756393950406z" style="fill:rgb(32,48,157)"/><path d="M34.21773268574661,106.24532961288578L53.44131517486579,103.92777761198747L1.0571906881218361e-14,0.10413249425225912z" style="fill:rgb(111,34,212)"/><path d="M90.32583846347217,87.25046534123518L105.06829264904015,74.18618979858596L57.48705637154519,-32.60923625756821z" style="fill:rgb(200,74,217)"/><path d="M23.904784093234277,-212.88892883830655L122.5761364595834,28.78853374405096L118.51563966228576,15.383075056015198z" style="fill:rgb(246,169,146)"/><path d="M53.44131517486579,103.92777761198747L72.65216911976198,97.43626157321732L21.172997495351858,-7.442615272836407z" style="fill:rgb(143,42,220)"/><path d="M72.65216911976198,97.43626157321732L90.32583846347217,87.25046534123518L40.86098815107191,-18.650824916343858z" style="fill:rgb(173,56,222)"/><path d="M-40.0521057122181,2.336534945367264L-55.89878901363712,-2.932548635288112L1.4872998924799847,98.32138787611298z" style="fill:rgb(54,37,180)"/><path d="M21.24425562571106,-198.11689098842947L121.70111021192221,43.77974550028256L122.5761364595834,28.78853374405096z" style="fill:rgb(246,146,169)"/><path d="M-20.953719707131228,3.4210851991788727L-40.0521057122181,2.336534945367264L16.46767411730553,104.28808916278282z" style="fill:rgb(81,32,199)"/><path d="M72.75455447857266,-54.81880987060658L69.78065123059967,-48.17114079945576L115.76788621892493,59.302776674026454zM115.76788621892493,59.302776674026454L121.70111021192221,43.77974550028256L21.24425562571106,-198.11689098842947z" style="fill:rgb(238,121,190)"/><path d="M69.78065123059967,-48.17114079945576L57.48705637154519,-32.60923625756821L105.06829264904015,74.18618979858596z" style="fill:rgb(222,97,206)"/><path d="M1.0571906881218361e-14,0.10413249425225912L-20.953719707131228,3.4210851991788727L34.21773268574661,106.24532961288578z" style="fill:rgb(111,34,212)"/><path d="M57.48705637154519,-32.60923625756821L40.86098815107191,-18.650824916343858L90.32583846347217,87.25046534123518z" style="fill:rgb(200,74,217)"/><path d="M57.48705637154519,-32.60923625756821L-70.22916236437737,-16.763202059914235L-67.45419358020726,-11.840854086136307z" style="fill:rgb(83,212,212)"/><path d="M21.172997495351858,-7.442615272836407L1.0571906881218361e-14,0.10413249425225912L53.44131517486579,103.92777761198747z" style="fill:rgb(143,42,220)"/><path d="M40.86098815107191,-18.650824916343858L21.172997495351858,-7.442615272836407L72.65216911976198,97.43626157321732z" style="fill:rgb(173,56,222)"/><path d="M57.48705637154519,-32.60923625756821L-67.45419358020726,-11.840854086136307L-55.89878901363712,-2.932548635288112zM57.48705637154519,-32.60923625756821L72.75455447857266,-54.81880987060658L-70.22916236437737,-16.763202059914235z" style="fill:rgb(83,212,212)"/><path d="M-103.85487115018348,-75.45825374493145L-70.22916236437737,-16.763202059914235L72.75455447857266,-54.81880987060658z" style="fill:rgb(127,37,217)"/><path d="M57.48705637154519,-32.60923625756821L-55.89878901363712,-2.932548635288112L-40.0521057122181,2.336534945367264zM57.48705637154519,-32.60923625756821L69.78065123059967,-48.17114079945576L72.75455447857266,-54.81880987060658z" style="fill:rgb(83,212,212)"/><path d="M72.75455447857266,-54.81880987060658L115.76788621892493,59.302776674026454L21.24425562571106,-198.11689098842947z" style="fill:rgb(238,121,190)"/><path d="M57.48705637154519,-32.60923625756821L-40.0521057122181,2.336534945367264L-20.953719707131228,3.4210851991788727zM-58.93877738306195,-236.25225760112835L-79.64079737396186,-228.05629547080864L-99.2072211507872,-217.20018925337985zM-58.93877738306195,-236.25225760112835L-99.2072211507872,-217.20018925337985L-130.61588601976365,-190.0107345172621zM57.48705637154519,-32.60923625756821L-20.953719707131228,3.4210851991788727L1.0571906881218361e-14,0.10413249425225912zM-99.2072211507872,-217.20018925337985L-116.53915960670943,-204.28378116600732L-130.61588601976365,-190.0107345172621zM2.0558138986526455e-14,0.10413249425230015L-21.037602484476185,7.602621057785772L-40.68317789554199,18.777476025191305z" style="fill:rgb(83,212,212)"/><path d="M118.51563966228576,15.383075056015198L20.55774191574801,-225.3586690907876L23.904784093234277,-212.88892883830655z" style="fill:rgb(246,169,146)"/><path d="M57.48705637154519,-32.60923625756821L1.0571906881218361e-14,0.10413249425225912L21.172997495351858,-7.442615272836407zM57.48705637154519,-32.60923625756821L21.172997495351858,-7.442615272836407L40.86098815107191,-18.650824916343858zM-18.790840536584582,-242.84384500158208L-38.25751337490868,-241.30099768349547L-58.93877738306195,-236.25225760112835zM2.0558138986526455e-14,0.10413249425230015L-40.68317789554199,18.777476025191305L-71.47770532396245,49.55345258612729zM-40.68317789554199,18.777476025191305L-57.83431324882862,33.0151099426245L-71.47770532396245,49.55345258612729z" style="fill:rgb(83,212,212)"/><path d="M72.75455447857266,-54.81880987060658L46.08179324064907,-117.93690840544278L-103.85487115018348,-75.45825374493145z" style="fill:rgb(127,37,217)"/><path d="M41.51801675788569,-2.2099761082191396L21.258648690599188,-3.261090161339977L2.0558138986526455e-14,0.10413249425230015z" style="fill:rgb(83,212,212)"/><path d="M122.5761364595834,28.78853374405096L23.904784093234277,-212.88892883830655L21.24425562571106,-198.11689098842947z" style="fill:rgb(246,146,169)"/><path d="M59.536148271673774,3.3384118260997386L2.0558138986526455e-14,0.10413249425230015L-71.47770532396245,49.55345258612729zM11.72653675369768,-234.77743762008853L-18.790840536584582,-242.84384500158208L-58.93877738306195,-236.25225760112835zM59.536148271673774,3.3384118260997386L41.51801675788569,-2.2099761082191396L2.0558138986526455e-14,0.10413249425230015zM-130.61588601976365,-190.0107345172621L-140.5249386743084,-175.18118818560825L-145.50807326869275,-160.67899240762787zM-58.93877738306195,-236.25225760112835L-130.61588601976365,-190.0107345172621L-138.8379634328557,-136.43485922742803zM11.72653675369768,-234.77743762008853L-1.7413105480166513,-240.67531867078876L-18.790840536584582,-242.84384500158208zM-71.47770532396245,49.55345258612729L-75.28187176953996,56.93496506480798L78.19124669921068,18.88376581011156z" style="fill:rgb(83,212,212)"/><path d="M-138.8379634328557,-136.43485922742803L-101.15311000190667,-70.65930564808907L-89.47419696732922,-62.17412469083911z" style="fill:rgb(32,48,157)"/><path d="M-71.47770532396245,49.55345258612729L78.19124669921068,18.88376581011156L59.536148271673774,3.3384118260997386zM-130.61588601976365,-190.0107345172621L-145.50807326869275,-160.67899240762787L-138.8379634328557,-136.43485922742803z" style="fill:rgb(83,212,212)"/><path d="M21.24425562571106,-198.11689098842947L46.08179324064907,-117.93690840544278L72.75455447857266,-54.81880987060658z" style="fill:rgb(238,121,190)"/><path d="M78.19124669921068,18.88376581011156L74.09536274442722,13.225156802382262L59.536148271673774,3.3384118260997386zM12.493291906437866,-182.05387600818045L11.72653675369768,-234.77743762008853L-58.93877738306195,-236.25225760112835z" style="fill:rgb(83,212,212)"/><path d="M-127.08738665352834,-128.54010221177936L-89.47419696732922,-62.17412469083911L-73.18829233192312,-57.435203419103786z" style="fill:rgb(54,37,180)"/><path d="M-145.50807326869275,-160.67899240762787L-145.0258690897815,-147.4457897067924L-138.8379634328557,-136.43485922742803z" style="fill:rgb(83,212,212)"/><path d="M27.38237353609198,-92.40107434309647L136.58009807898682,151.02204704868547L131.84968632758913,134.2485515690604z" style="fill:rgb(246,169,146)"/><path d="M-158.8347976989369,-6.1335297213619L-10.829104774502907,217.01021361542368L1.6584253709448045,229.4226484069297z" style="fill:rgb(32,48,157)"/><path d="M12.493291906437866,-182.05387600818045L-58.93877738306195,-236.25225760112835L-138.8379634328557,-136.43485922742803zM23.904784093234277,-212.88892883830655L20.55774191574801,-225.3586690907876L11.72653675369768,-234.77743762008853z" style="fill:rgb(83,212,212)"/><path d="M-89.47419696732922,-62.17412469083911L-127.08738665352834,-128.54010221177936L-138.8379634328557,-136.43485922742803z" style="fill:rgb(32,48,157)"/><path d="M-110.36890376554167,-124.50236265108079L-73.18829233192312,-57.435203419103786L-53.35315740877974,-56.96245346607625z" style="fill:rgb(81,32,199)"/><path d="M12.493291906437866,-182.05387600818045L42.79473743153558,-111.23824613979366L46.08179324064907,-117.93690840544278z" style="fill:rgb(238,121,190)"/><path d="M24.39138108379763,-73.23486359364651L135.80422527793937,169.50101963821157L136.58009807898682,151.02204704868547z" style="fill:rgb(246,146,169)"/><path d="M-145.74303883905733,5.4205579919054205L1.6584253709448045,229.4226484069297L18.387786184638138,237.840994530103z" style="fill:rgb(54,37,180)"/><path d="M-1.9039545298895226,-165.91152801109857L29.52651800474199,-95.36627063291974L42.79473743153558,-111.23824613979366z" style="fill:rgb(222,97,206)"/><path d="M-89.75451122765647,-124.80444375313992L-53.35315740877974,-56.96245346607625L-31.419070191584506,-60.93557775289499z" style="fill:rgb(111,34,212)"/><path d="M-73.18829233192312,-57.435203419103786L-110.36890376554167,-124.50236265108079L-127.08738665352834,-128.54010221177936z" style="fill:rgb(54,37,180)"/><path d="M12.493291906437866,-182.05387600818045L23.904784093234277,-212.88892883830655L11.72653675369768,-234.77743762008853z" style="fill:rgb(83,212,212)"/><path d="M-20.953001138659328,-150.99088456702557L11.76969080101509,-80.93355455869052L29.52651800474199,-95.36627063291974z" style="fill:rgb(200,74,217)"/><path d="M21.24425562571106,-198.11689098842947L12.493291906437866,-182.05387600818045L46.08179324064907,-117.93690840544278z" style="fill:rgb(238,121,190)"/><path d="M-66.75048576124291,-129.5760357881917L-31.419070191584506,-60.93557775289499L-9.107912264231558,-69.13413015099331z" style="fill:rgb(143,42,220)"/><path d="M-43.173093174536824,-138.53536263299745L-9.107912264231558,-69.13413015099331L11.76969080101509,-80.93355455869052z" style="fill:rgb(173,56,222)"/><path d="M14.37287026181902,-52.81044690281883L129.34631398186193,188.371103920457L135.80423288406845,169.50101897639507z" style="fill:rgb(238,121,190)"/><path d="M-126.84825966028069,12.35878531126455L18.387786184638138,237.840994530103L38.25035713264252,241.46410674200226z" style="fill:rgb(81,32,199)"/><path d="M-138.8379634328557,-136.43485922742803L-127.08738665352834,-128.54010221177936L-110.36890376554167,-124.50236265108079z" style="fill:rgb(83,212,212)"/><path d="M-53.35315740877974,-56.96245346607625L-89.75451122765647,-124.80444375313992L-110.36890376554167,-124.50236265108079z" style="fill:rgb(81,32,199)"/><path d="M42.79473743153558,-111.23824613979366L12.493291906437866,-182.05387600818045L-1.9039545298895226,-165.91152801109857z" style="fill:rgb(222,97,206)"/><path d="M12.493291906437866,-182.05387600818045L21.244253360792104,-198.1169091071406L23.904784093234277,-212.88892883830655z" style="fill:rgb(83,212,212)"/><path d="M-2.1937287167965853,-32.708839844511765L117.50316642481006,206.1827340140329L129.34631398186193,188.371103920457z" style="fill:rgb(222,97,206)"/><path d="M-103.34088033739911,13.900084150078728L38.25035713264252,241.46410674200226L59.78529810031391,239.85524147852732z" style="fill:rgb(111,34,212)"/><path d="M-138.8379634328557,-136.43485922742803L-110.36890376554167,-124.50236265108079L-66.75048576124291,-129.5760357881917z" style="fill:rgb(83,212,212)"/><path d="M-31.419070191584506,-60.93557775289499L-66.75048576124291,-129.5760357881917L-89.75451122765647,-124.80444375313992z" style="fill:rgb(111,34,212)"/><path d="M-138.8379634328557,-136.43485922742803L-66.75048576124291,-129.5760357881917L12.493291906437866,-182.05387600818045z" style="fill:rgb(83,212,212)"/><path d="M29.52651800474199,-95.36627063291974L-1.9039545298895226,-165.91152801109857L-20.953001138659328,-150.99088456702557zM-24.163486883621818,-14.602978331615386L101.07195883298783,221.4929911593328L117.50316642481006,206.1827340140329z" style="fill:rgb(200,74,217)"/><path d="M-76.94929675940892,9.698324498316763L59.78529810031391,239.85524147852732L81.30461222861716,233.03117156580734zM-9.107912264231558,-69.13413015099331L-43.173093174536824,-138.53536263299745L-66.75048576124291,-129.5760357881917z" style="fill:rgb(143,42,220)"/><path d="M11.76969080101509,-80.93355455869052L-20.953001138659328,-150.99088456702557L-43.173093174536824,-138.53536263299745zM-49.7970556790473,-0.05408173764721966L81.30461222861716,233.03117156580734L101.07195883298783,221.4929911593328z" style="fill:rgb(173,56,222)"/><path d="M-110.36890376554167,-124.50236265108079L-89.75451122765647,-124.80444375313992L-66.75048576124291,-129.5760357881917zM-20.953001138659328,-150.99088456702557L-1.9039545298895226,-165.91152801109857L12.493291906437866,-182.05387600818045zM-66.75048576124291,-129.5760357881917L-20.953001138659328,-150.99088456702557L12.493291906437866,-182.05387600818045zM-66.75048576124291,-129.5760357881917L-90.15840058843136,-120.68109924687802L-112.32392018850607,-108.26594080857147zM-66.75048576124291,-129.5760357881917L-43.173093174536824,-138.53536263299745L-20.953001138659328,-150.99088456702557zM-112.32392018850607,-108.26594080857147L-132.0376664099231,-92.99362062127605L-148.1647138358002,-75.66083532917989zM-21.332735652912042,-134.8589953313462L-66.75048576124291,-129.5760357881917L-112.32392018850607,-108.26594080857147z" style="fill:rgb(83,212,212)"/><path d="M131.84968632758913,134.2485515690604L23.490712340913014,-108.97455474726162L27.38237353609198,-92.40107434309647z" style="fill:rgb(246,169,146)"/><path d="M-21.332735652912042,-134.8589953313462L-43.36967149137031,-134.42577324443312L-66.75048576124291,-129.5760357881917zM-112.32392018850607,-108.26594080857147L-148.1647138358002,-75.66083532917989L-165.67298632516312,-38.665489010095996z" style="fill:rgb(83,212,212)"/><path d="M1.6584253709448045,229.4226484069297L-145.74303883905733,5.4205579919054205L-158.8347976989369,-6.1335297213619z" style="fill:rgb(32,48,157)"/><path d="M-21.332735652912042,-134.8589953313462L-112.32392018850607,-108.26594080857147L-165.67298632516312,-38.665489010095996z" style="fill:rgb(83,212,212)"/><path d="M136.58009807898682,151.02204704868547L27.38237353609198,-92.40107434309647L24.39138108379763,-73.23486359364651z" style="fill:rgb(246,146,169)"/><path d="M-148.1647138358002,-75.66083532917989L-159.6713622124782,-57.19809434652406L-165.67298632516312,-38.665489010095996zM13.367332675928344,-121.9531486809972L-1.9805809781293506,-130.68806934543403L-21.332735652912042,-134.8589953313462z" style="fill:rgb(83,212,212)"/><path d="M18.387786184638138,237.840994530103L-126.84825966028069,12.35878531126455L-145.74303883905733,5.4205579919054205z" style="fill:rgb(54,37,180)"/><path d="M135.80423288406845,169.50101897639507L24.391385797306665,-73.23486732927334L14.37287026181902,-52.81044690281883z" style="fill:rgb(238,121,190)"/><path d="M38.25035713264252,241.46410674200226L-103.34088033739911,13.900084150078728L-126.84825966028069,12.35878531126455z" style="fill:rgb(81,32,199)"/><path d="M129.34631398186193,188.371103920457L14.37287026181902,-52.81044690281883L-2.1937287167965853,-32.708839844511765z" style="fill:rgb(222,97,206)"/><path d="M27.38237353609198,-92.40107434309647L13.367332675928344,-121.9531486809972L-21.332735652912042,-134.8589953313462z" style="fill:rgb(83,212,212)"/><path d="M59.78529810031391,239.85524147852732L-76.94929675940892,9.698324498316763L-103.34088033739911,13.900084150078728z" style="fill:rgb(111,34,212)"/><path d="M117.50316642481006,206.1827340140329L-2.1937287167965853,-32.708839844511765L-24.163486883621818,-14.602978331615386z" style="fill:rgb(200,74,217)"/><path d="M-165.67298632516312,-38.665489010095996L-165.50782419556393,-21.23300902330607L-158.8347976989369,-6.1335297213619z" style="fill:rgb(83,212,212)"/><path d="M81.30461222861716,233.03117156580734L-49.7970556790473,-0.05408173764721966L-76.94929675940892,9.698324498316763z" style="fill:rgb(143,42,220)"/><path d="M101.07195883298783,221.4929911593328L-24.163486883621818,-14.602978331615386L-49.7970556790473,-0.05408173764721966z" style="fill:rgb(173,56,222)"/><path d="M-24.163486883621818,-14.602978331615386L-21.332735652912042,-134.8589953313462L-165.67298632516312,-38.665489010095996zM27.38237353609198,-92.40107434309647L23.490712340913014,-108.97455474726162L13.367332675928344,-121.9531486809972zM-165.67298632516312,-38.665489010095996L-158.8347976989369,-6.1335297213619L-126.84825966028069,12.35878531126455zM-24.163486883621818,-14.602978331615386L27.38237353609198,-92.40107434309647L-21.332735652912042,-134.8589953313462zM-158.8347976989369,-6.1335297213619L-145.74303883905733,5.4205579919054205L-126.84825966028069,12.35878531126455zM-165.67298632516312,-38.665489010095996L-126.84825966028069,12.35878531126455L-24.163486883621818,-14.602978331615386zM14.37287026181902,-52.81044690281883L24.391385797306665,-73.23486732927334L27.38237353609198,-92.40107434309647zM-24.163486883621818,-14.602978331615386L14.37287026181902,-52.81044690281883L27.38237353609198,-92.40107434309647zM-126.84825966028069,12.35878531126455L-103.34088033739911,13.900084150078728L-76.94929675940892,9.698324498316763zM-126.84825966028069,12.35878531126455L-76.94929675940892,9.698324498316763L-24.163486883621818,-14.602978331615386zM-24.163486883621818,-14.602978331615386L-2.1937287167965853,-32.708839844511765L14.37287026181902,-52.81044690281883zM-76.94929675940892,9.698324498316763L-49.797061065493615,-0.054082600320915115L-24.163486883621818,-14.602978331615386z" style="fill:rgb(83,212,212)"/></svg>
