<?xml version="1.0" encoding="UTF-8"?>
<!-- Generated by jsxcad -->
<!DOCTYPE svg PUBLIC "-//W3C//DTD SVG 1.1 Tiny//EN" "http://www.w3.org/Graphics/SVG/1.1/DTD/svg11-tiny.dtd">
<svg viewBox="-250 -250 500 500" width="500" height="500" xmlns="http://www.w3.org/2000/svg"><path d="M-105.57765659108615,31.00308298338857L-83.48414366365498,50.20528553064481L-158.45235643142806,-69.75146961095105zM-158.45235643142806,-69.75146961095105L-180.68998890945846,-87.29372171408515L-105.57765659108615,31.00308298338857z" style="fill:rgb(32,48,157)"/><path d="M-83.48414366365498,50.20528553064481L-51.92889642689099,62.38684519899445L-125.24824251556984,-59.70865978375163z" style="fill:rgb(54,37,180)"/><path d="M173.1966123608295,-40.480251604062325L178.21498382109758,-54.12188565089649L133.50309817310622,-191.02270561240945z" style="fill:rgb(238,121,190)"/><path d="M-51.92889642689099,62.38684519899445L-12.822228699478808,65.9432694135137L-82.96292568362946,-58.72645354207262z" style="fill:rgb(81,32,199)"/><path d="M149.66401880316369,-8.115623059559113L173.1966123608295,-40.480251604062325L127.33413602793561,-177.2377421839426z" style="fill:rgb(222,97,206)"/><path d="M-125.24824251556984,-59.70865978375163L-158.45235643142806,-69.75146961095105L-83.48414366365498,50.20528553064481z" style="fill:rgb(54,37,180)"/><path d="M-12.822228699478808,65.9432694135137L30.825825476366745,59.99131068676722L-34.83181953074625,-67.56573038116636z" style="fill:rgb(111,34,212)"/><path d="M116.04470410078295,21.21321039783266L149.66401880316369,-8.115623059559113L99.80250386418915,-143.56619894174406z" style="fill:rgb(200,74,217)"/><path d="M30.825825476366745,59.99131068676722L75.16711973639775,44.66202873279541L14.8175168905945,-85.86989583564245z" style="fill:rgb(143,42,220)"/><path d="M75.16711973639775,44.66202873279541L116.04470410078295,21.21321039783266L61.180947940531496,-112.065403925278z" style="fill:rgb(173,56,222)"/><path d="M-82.96292568362946,-58.72645354207262L-125.24824251556984,-59.70865978375163L-51.92889642689099,62.38684519899445z" style="fill:rgb(81,32,199)"/><path d="M14.8175168905945,-85.86989583564245L-185.19710474710814,-97.0475495600749L-180.68998890945846,-87.29372171408515z" style="fill:rgb(83,212,212)"/><path d="M133.50309817310622,-191.02270561240945L127.33413602793561,-177.2377421839426L173.1966123608295,-40.480251604062325z" style="fill:rgb(238,121,190)"/><path d="M14.8175168905945,-85.86989583564245L-180.68998890945846,-87.29372171408515L-158.45235643142806,-69.75146961095105z" style="fill:rgb(83,212,212)"/><path d="M127.33413602793561,-177.2377421839426L99.80250386418915,-143.56619894174406L149.66401880316369,-8.115623059559113z" style="fill:rgb(222,97,206)"/><path d="M-34.83181953074625,-67.56573038116636L-82.96292568362946,-58.72645354207262L-12.822228699478808,65.9432694135137z" style="fill:rgb(111,34,212)"/><path d="M14.8175168905945,-85.86989583564245L133.50309817310622,-191.02270561240945L-185.19710474710814,-97.0475495600749z" style="fill:rgb(83,212,212)"/><path d="M99.80250386418915,-143.56619894174406L61.180947940531496,-112.065403925278L116.04470410078295,21.21321039783266z" style="fill:rgb(200,74,217)"/><path d="M14.8175168905945,-85.86989583564245L-34.83181953074625,-67.56573038116636L30.825825476366745,59.99131068676722z" style="fill:rgb(143,42,220)"/><path d="M14.8175168905945,-85.86989583564245L-158.45235643142806,-69.75146961095105L-125.24824251556984,-59.70865978375163z" style="fill:rgb(83,212,212)"/><path d="M61.180947940531496,-112.065403925278L14.8175168905945,-85.86989583564245L75.16711973639775,44.66202873279541z" style="fill:rgb(173,56,222)"/><path d="M14.8175168905945,-85.86989583564245L127.33413602793561,-177.2377421839426L133.50309817310622,-191.02270561240945zM14.8175168905945,-85.86989583564245L-125.24824251556984,-59.70865978375163L-82.96292568362946,-58.72645354207262z" style="fill:rgb(83,212,212)"/><path d="M-217.220941839779,66.19861277394985L-127.40149745927779,182.49574521826963L207.67760365343065,109.04875421225304z" style="fill:rgb(127,37,217)"/><path d="M14.8175168905945,-85.86989583564245L99.80250386418915,-143.56619894174406L127.33413602793561,-177.2377421839426zM-34.83181953074625,-67.56573038116636L-83.7391344214825,-49.535120356500215L-129.86677068984133,-23.519244382967738zM14.8175168905945,-85.86989583564245L-82.96292568362946,-58.72645354207262L-34.83181953074625,-67.56573038116636zM14.8175168905945,-85.86989583564245L61.180947940531496,-112.065403925278L99.80250386418915,-143.56619894174406zM14.959591277073152,-76.70992335629349L-34.83181953074625,-67.56573038116636L-129.86677068984133,-23.519244382967738zM-129.86677068984133,-23.519244382967738L-171.3828489807376,9.516716333726542L-206.40894193760536,48.47101257773966zM108.53518764991905,-65.03084772654276L63.54840562348531,-76.11483926580145L14.959591277073152,-76.70992335629349zM14.959591277073152,-76.70992335629349L-129.86677068984133,-23.519244382967738L158.8553344186187,-29.58986974634452zM-129.86677068984133,-23.519244382967738L-206.40894193760536,48.47101257773966L158.8553344186187,-29.58986974634452z" style="fill:rgb(83,212,212)"/><path d="M207.67760365343065,109.04875421225304L158.8553344186187,-29.58986974634452L-217.220941839779,66.19861277394985z" style="fill:rgb(127,37,217)"/><path d="M-206.40894193760536,48.47101257773966L-217.220941839779,66.19861277394985L158.8553344186187,-29.58986974634452zM158.8553344186187,-29.58986974634452L108.53518764991905,-65.03084772654276L14.959591277073152,-76.70992335629349zM158.8553344186187,-29.58986974634452L147.1271700779029,-42.954932185041635L108.53518764991905,-65.03084772654276z" style="fill:rgb(83,212,212)"/></svg>
